# xmcd
#
# Track frame offsets: 
#        150
#        13667
#        27912
#        40770
#        52692
#        66260
#        80047
#        92660
#        106907
#        119647
#        134300
#        147862
#        159885
#        173580
#        186630
#        199180
#        214070
#        226162
#        240227
#        252012
#        263062
#        277490
#        291340
#        304692
#        319182
#
# Disc length: 4449 seconds
#
# Revision: 3
# Processed by: cddbd v1.5.2PL0 Copyright (c) Steve Scherf et al.
# Submitted via: ExactAudioCopy v0.99pb4
#
DISCID=64115f19
DTITLE=Various Artist - The Ultimate Blues - Nothin' But The Blues
DYEAR=1996
DGENRE=Blues
TTITLE0=Sonny Boy Williamson - Good Morning Little Schoolgirl
TTITLE1=Kokomo Arnold - Milk Cow Blues
TTITLE2=Bertha Idaho - Down On Pennsylvania Avenue
TTITLE3=Jimmy Yancey - State Street Special
TTITLE4=Robert Johnson - Terraplane Blues
TTITLE5=Mississippi Sheiks - Sittin' On Top Of The World
TTITLE6=Bukka White - Fixin' to Die Blues
TTITLE7=Memphis Minnie and Kansas Joe - When The Levee Breaks
TTITLE8=Robert Petway - Catfish Blues
TTITLE9=Joe McCoy - Weed Smoker's Dream
TTITLE10=Blind Blake - Rope Stretching Blues
TTITLE11=Big Joe Williams - Baby Please Don't Go
TTITLE12=Cannon's Jug Stompers - Ripley Blues
TTITLE13=Sipple Wallace - I'm A Mighty Tight Woman
TTITLE14=Walter Davis - Sweet Sixteen
TTITLE15=Sleepy John Estes - Broken Hearted, Ragged And Dirty Too
TTITLE16=Sonny Boy Williamson - New Early In The Morning
TTITLE17=Mattie Delaney - Down The Big Road Blues
TTITLE18=Leadbelly - Fannin' Street
TTITLE19=Blind Boy Fuller - She's A Trucking Little Baby
TTITLE20=Ma Rainey - Sleep Talking Blues
TTITLE21=Muddy Waters - I Be's Troubled
TTITLE22=Kid Bailey - Rowdy Man Blues
TTITLE23=Dr Clayton - Cheatin' And Lyin' Blues
TTITLE24=Big Joe Williams - Highway 49
EXTD=
EXTT0=
EXTT1=
EXTT2=
EXTT3=
EXTT4=
EXTT5=
EXTT6=
EXTT7=
EXTT8=
EXTT9=
EXTT10=
EXTT11=
EXTT12=
EXTT13=
EXTT14=
EXTT15=
EXTT16=
EXTT17=
EXTT18=
EXTT19=
EXTT20=
EXTT21=
EXTT22=
EXTT23=
EXTT24=
PLAYORDER=
